<?xml version="1.0" encoding="utf-8"?>
<!-- Generator: Adobe Illustrator 16.0.0, SVG Export Plug-In . SVG Version: 6.00 Build 0)  -->
<!DOCTYPE svg PUBLIC "-//W3C//DTD SVG 1.1//EN" "http://www.w3.org/Graphics/SVG/1.1/DTD/svg11.dtd">
<svg version="1.1" id="Layer_1" xmlns="http://www.w3.org/2000/svg" xmlns:xlink="http://www.w3.org/1999/xlink" x="0px" y="0px"
	 width="195px" height="100px" viewBox="0 0 195 100" enable-background="new 0 0 195 100" xml:space="preserve">
<g>
	<path fill-rule="evenodd" clip-rule="evenodd" fill="#FFFFFF" d="M9.982,56.734c-0.084-8.642,2.385-16.421,6.288-23.803
		c3.573-6.758,8.081-12.803,14.046-17.656c3.347-2.723,6.989-4.889,11.484-5.013c3.987-0.11,7.45,1.39,10.404,3.897
		c11.232,9.533,18.76,21.309,21.242,36.001c2.463,14.585-3.756,28.341-15.879,35.386c-15.04,8.738-34.72,3.359-43.277-11.752
		C11.244,68.416,9.851,62.682,9.982,56.734z M19.801,56.979c-0.362,11.146,8.906,22.573,22.369,22.517
		c11.964-0.055,22.012-10.156,21.782-23.084c-0.214-12.051-10.198-22.133-22.153-22.086C29.335,34.375,19.745,44.251,19.801,56.979z
		"/>
	<path fill-rule="evenodd" clip-rule="evenodd" fill="#FFFFFF" d="M154.854,57.391c-1.508,0-3.018-0.043-4.522,0.012
		c-1.179,0.041-1.186-0.717-1.101-1.498c0.086-0.779-0.424-1.946,1.121-1.925c2.364,0.032,4.731,0,7.095,0.06
		c0.383,0.011,0.982,0.276,1.1,0.576c0.849,2.147-0.251,6.17-2.097,7.645c-2.433,1.938-5.308,2.451-8.304,2.17
		c-6.408-0.602-10.189-5.014-9.974-11.494c0.186-5.522,4.885-9.919,10.812-10.12c2.595-0.088,5.105,0.179,7.348,1.646
		c1.35,0.883,1.393,1.166,0.358,2.393c-0.243,0.288-0.503,0.567-0.729,0.868c-0.498,0.659-0.94,0.695-1.635,0.151
		c-2.788-2.189-7.228-2.064-9.851,0.2c-2.364,2.041-3.088,6.479-1.539,9.432c1.783,3.395,7.639,4.838,10.721,2.549
		c0.706-0.527,1.102-1.471,1.64-2.221C155.15,57.686,155.002,57.537,154.854,57.391z"/>
	<path fill-rule="evenodd" clip-rule="evenodd" fill="#FFFFFF" d="M127.11,57.385c-1.589,0-3.036-0.043-4.478,0.015
		c-0.93,0.039-1.374-0.309-1.2-1.219c0.156-0.833-0.604-2.192,1.128-2.21c2.416-0.024,4.829-0.037,7.245-0.005
		c0.302,0.005,0.765,0.237,0.871,0.487c0.856,1.96-0.335,6.242-2.082,7.695c-3.785,3.148-10.865,3-14.659-0.305
		c-3.875-3.375-4.809-9.583-2.101-14.002c1.21-1.973,2.969-3.349,5.084-4.155c3.95-1.506,7.88-1.423,11.611,0.743
		c1.314,0.764,1.308,1.125,0.295,2.268c-1.396,1.572-1.396,1.572-3.139,0.511c-2.788-1.7-7.39-1.05-9.575,1.35
		c-2.229,2.453-2.39,7.058-0.339,9.782c1.894,2.52,6.21,3.516,9.161,2.113C126.122,59.891,126.817,58.961,127.11,57.385z"/>
	<path fill-rule="evenodd" clip-rule="evenodd" fill="#FFFFFF" d="M87.813,64.221c0-1.313-0.001-2.395,0-3.477
		c0.009-5.398,0.049-10.796,0.006-16.195c-0.009-1.14,0.365-1.461,1.472-1.449c4.214,0.042,8.429,0.024,12.643-0.029
		c1.069-0.014,1.688,0.147,1.642,1.44c-0.075,2.163-0.027,2.187-1.598,2.187c-2.794,0-5.587,0.039-8.381-0.016
		c-1.225-0.024-1.768,0.283-1.731,1.669c0.09,3.516,0.022,3.52,3.535,3.519c2.036,0,4.072,0.028,6.106-0.032
		c1.027-0.028,1.417,0.416,1.254,1.355c-0.153,0.873,0.595,2.261-1.257,2.239c-2.747-0.032-5.494,0.044-8.24-0.017
		c-1.066-0.024-1.377,0.346-1.392,1.386c-0.057,3.905-0.088,3.909,3.847,3.909c2.273,0,4.546,0.014,6.819-0.025
		c0.907-0.014,1.234,0.453,1.094,1.225c-0.148,0.805,0.646,2.23-0.848,2.268C97.869,64.297,92.95,64.221,87.813,64.221z"/>
	<path fill-rule="evenodd" clip-rule="evenodd" fill="#FFFFFF" d="M177.131,42.772c6.291,0.048,10.955,4.678,10.903,10.828
		c-0.053,6.22-5.003,10.946-11.414,10.903c-6.062-0.039-10.721-4.744-10.664-10.764C166.017,47.501,170.884,42.725,177.131,42.772z
		 M176.946,61.287c4.324,0.014,7.774-3.434,7.732-7.731c-0.042-4.259-3.293-7.46-7.618-7.499c-4.429-0.039-7.606,3.095-7.654,7.545
		C169.36,58,172.569,61.271,176.946,61.287z"/>
	<path fill-rule="evenodd" clip-rule="evenodd" fill="#FFFFFF" d="M51.397,68.602c-6.728-0.066-12.842-1.752-18.209-6.066
		c-2.711-2.18-5.846-3.829-8.737-5.791c-0.389-0.264-0.708-0.973-0.68-1.454c0.279-4.724,2.335-8.646,5.768-11.805
		c6.664-6.134,16.601-6.563,23.255-1.1c7.334,6.021,9.288,16.354,4.626,24.176c-0.696,1.168-1.504,1.863-2.911,1.848
		C53.473,68.398,52.435,68.533,51.397,68.602z"/>
	<path fill-rule="evenodd" clip-rule="evenodd" fill="#FFFFFF" d="M53.94,70.467c-4.457,5.023-13.044,6.525-19.372,3.498
		c-5.926-2.832-11.191-10.096-10.479-14.662c0.7,0.348,1.38,0.633,2.007,1.008c3.728,2.229,7.505,4.381,11.146,6.746
		c4.677,3.037,9.757,3.914,15.191,3.34c0.329-0.035,0.66-0.064,0.989-0.07C53.552,70.324,53.68,70.395,53.94,70.467z"/>
</g>
</svg>
